<svg width="270" height="266" viewBox="0 0 270 266" fill="none" xmlns="http://www.w3.org/2000/svg">
<path d="M80.1624 174.116C78.9256 174.116 77.5651 173.869 76.081 173.374C74.5969 172.88 73.6899 172.467 73.3601 172.138C72.2883 170.818 71.7523 168.963 71.7523 166.572C71.7523 164.676 72.5356 163.068 74.1022 161.749C75.6688 160.43 77.4827 159.77 79.544 159.77C81.193 159.77 83.0894 160.842 85.2331 162.986C87.2119 165.129 88.7785 166.201 89.9328 166.201C92.9011 166.201 95.3334 163.398 97.2298 157.791C98.9613 152.102 99.827 144.022 99.827 133.55V81.8535C99.827 79.5448 99.7445 77.566 99.5796 75.917C99.4972 74.1855 99.2911 72.7838 98.9613 71.7119C98.7964 71.0523 98.178 70.5164 97.1061 70.1041C96.1167 69.6919 95.0036 69.4033 93.7668 69.2384C92.5301 68.9911 91.4582 68.8674 90.5512 68.8674C90.2214 68.8674 90.0565 68.249 90.0565 67.0122C90.0565 65.693 90.139 64.9509 90.3039 64.786C93.7668 65.0334 96.8587 65.2395 99.5796 65.4044C102.383 65.5693 104.939 65.6105 107.248 65.5281L122.955 64.786C123.202 65.5281 123.326 66.1877 123.326 66.7649C123.326 68.1665 123.161 68.8674 122.831 68.8674C122.336 68.8674 121.47 69.0323 120.234 69.3621C118.997 69.6919 117.843 70.0629 116.771 70.4752C115.699 70.8874 115.08 71.2997 114.916 71.7119C114.586 73.0312 114.338 74.5977 114.174 76.4117C114.009 78.1431 113.926 80.2044 113.926 82.5955V132.561C113.926 140.641 112.524 147.814 109.721 154.081C106.918 160.347 102.96 165.253 97.8482 168.798C92.8186 172.344 86.9234 174.116 80.1624 174.116Z" fill="white"/>
<path d="M118.48 199.031C118.151 198.701 117.986 198.083 117.986 197.176C117.986 195.692 118.068 194.95 118.233 194.95C118.893 194.95 119.841 194.785 121.078 194.455C122.397 194.125 123.634 193.713 124.788 193.218C126.025 192.641 126.808 192.064 127.138 191.487C127.962 190.25 128.746 188.848 129.488 187.282C130.23 185.633 131.013 183.819 131.838 181.84L154.841 126.185C156.82 121.156 158.346 118.188 159.418 117.281C159.995 116.704 160.696 116.415 161.52 116.415C162.097 116.415 162.592 116.621 163.004 117.033L188.976 181.84C189.636 183.407 190.254 184.973 190.831 186.54C191.491 188.024 192.109 189.467 192.687 190.869C193.016 191.693 193.758 192.435 194.913 193.095C196.067 193.672 197.263 194.125 198.499 194.455C199.736 194.785 200.684 194.95 201.344 194.95C201.674 194.95 201.839 195.692 201.839 197.176C201.839 198.083 201.756 198.701 201.591 199.031L186.008 198.289L169.93 199.031C169.6 198.701 169.435 197.918 169.435 196.681C169.435 195.527 169.6 194.95 169.93 194.95C170.919 194.95 172.28 194.702 174.011 194.208C175.743 193.713 176.774 193.136 177.103 192.476C177.351 191.982 177.474 191.446 177.474 190.869C177.474 190.044 177.268 188.931 176.856 187.529C176.444 186.128 175.867 184.396 175.124 182.335L170.796 170.833C170.466 170.503 170.177 170.338 169.93 170.338C168.611 170.256 167.044 170.214 165.23 170.214C163.499 170.132 161.52 170.091 159.294 170.091C154.841 170.091 150.142 170.214 145.195 170.462C144.7 170.462 144.453 170.627 144.453 170.957L139.753 182.458C138.928 184.52 138.31 186.251 137.898 187.653C137.568 188.972 137.403 189.92 137.403 190.497C137.403 191.487 137.857 192.311 138.763 192.971C139.258 193.301 140 193.631 140.99 193.96C142.062 194.208 143.133 194.455 144.205 194.702C145.277 194.867 146.019 194.95 146.431 194.95C146.679 195.032 146.802 195.609 146.802 196.681C146.802 197.258 146.761 197.753 146.679 198.165C146.679 198.495 146.638 198.784 146.555 199.031C143.504 198.866 140.99 198.701 139.011 198.536C137.114 198.372 135.342 198.289 133.693 198.289C132.044 198.289 130.065 198.33 127.756 198.413C125.448 198.495 122.356 198.701 118.48 199.031ZM157.068 163.412C160.036 163.412 163.416 163.289 167.209 163.041L167.457 162.546L158.057 137.811L147.916 162.546C147.916 162.876 147.998 163.041 148.163 163.041C151.049 163.289 154.017 163.412 157.068 163.412Z" fill="white"/>
<path d="M260.244 115.361C258.703 86.4508 246.406 59.1616 225.77 38.8552C205.134 18.5487 177.65 6.69298 148.719 5.61719" stroke="#2E86C1" stroke-width="10"/>
<path d="M148.647 259.184C177.599 259.217 205.516 248.423 226.915 228.922C248.314 209.421 261.647 182.623 264.295 153.793" stroke="#2C3E50" stroke-width="10"/>
<path d="M5.64566 149.678C7.02258 178.597 19.1638 205.956 39.684 226.379C60.2042 246.803 87.6199 258.814 116.545 260.055" stroke="#1A5276" stroke-width="10"/>
<path d="M118.488 7.64287C89.5461 8.38447 61.9274 19.922 41.0583 39.9888C20.1892 60.0556 7.57824 87.201 5.70312 116.092" stroke="#F39C12" stroke-width="10"/>
</svg>
